<svg xmlns="http://www.w3.org/2000/svg" xmlns:xlink="http://www.w3.org/1999/xlink" version="1.1" width="1041" height="422" viewBox="0 269 1041 422">
<g enable-background="new">
<g>
<path transform="matrix(2.7777777,0,0,-2.7777777,0,1041.6666)" d="M 0 0 L 375 0 L 375 375 L 0 375 Z " fill="#ffffff"/>
<clipPath id="cp0">
<path transform="matrix(2.7777777,0,0,-2.7777777,0,1041.6666)" d="M 0 0 L 375 0 L 375 375 L 0 375 Z "/>
</clipPath>
<g clip-path="url(#cp0)">
<path transform="matrix(2.7777777,0,0,-2.7777777,130.8725,354.29417)" d="M 0 0 C -18.596 -.032 -31.258 -14.792 -31.288 -31.289 C -31.258 -49.166 -18.478 -62.546 0 -62.578 L 31.116 -62.578 C 38.992 -62.688 43.844 -67.54 43.954 -75.416 C 43.844 -83.293 38.992 -88.145 31.116 -88.255 L -29.592 -88.255 L -29.592 -106.705 L -27.721 -106.705 L 32.813 -106.705 C 51.431 -106.705 64.07 -91.639 64.102 -75.416 C 64.07 -57.539 51.291 -44.159 32.813 -44.128 L 1.697 -44.128 C -6.179 -44.018 -11.031 -39.166 -11.141 -31.289 C -11.031 -23.413 -6.179 -18.561 1.697 -18.451 L 55.333 -18.451 L 55.333 0 Z M -29.418 -31.289 C -29.418 -15.731 -17.537 -1.871 0 -1.871 L 53.462 -1.871 L 53.462 -16.58 L 1.697 -16.58 C -7.071 -16.58 -13.012 -22.52 -13.012 -31.289 C -13.012 -40.058 -7.071 -45.998 1.697 -45.998 L 32.813 -45.998 C 50.35 -45.998 62.23 -58.444 62.23 -75.416 C 62.23 -90.691 50.35 -104.835 32.813 -104.835 L -27.721 -104.835 L -27.721 -90.126 L 31.116 -90.126 C 39.884 -90.126 45.824 -84.185 45.824 -75.416 C 45.824 -66.648 39.884 -60.708 31.116 -60.708 L 0 -60.708 C -17.537 -60.708 -29.418 -48.262 -29.418 -31.289 M -27.721 -104.835 L -25.851 -104.835 Z " fill="#ee7349"/>
</g>
<symbol id="font_1_1">
<path d="M .011999998 0 L .44000004 0 C .564 0 .64800009 .1 .64800009 .208 C .64800009 .328 .564 .416 .44000004 .416 L .22000003 .416 C .15799999 .416 .116000007 .45800004 .116000007 .52000007 C .116000007 .582 .15799999 .624 .22000003 .624 L .586 .624 L .586 .72800007 L .208 .72800007 C .084 .72800007 0 .63000008 0 .52000007 C 0 .4 .084 .312 .208 .312 L .42800004 .312 C .49 .312 .532 .27 .532 .208 C .532 .14600002 .49 .104 .42800004 .104 L .011999998 .104 L .011999998 0 Z "/>
</symbol>
<use xlink:href="#font_1_1" transform="matrix(392.8608,0,0,-392.8608,49.15515,645.50167)" fill="#ee7349"/>
<clipPath id="cp2">
<path transform="matrix(2.7777777,0,0,-2.7777777,0,1041.6666)" d="M 0 0 L 375 0 L 375 375 L 0 375 Z "/>
</clipPath>
<g clip-path="url(#cp2)">
<path transform="matrix(2.7777777,0,0,-2.7777777,448.51417,373.09999)" d="M 0 0 L 0 0 C 8.173 0 11.558 -.446 14.841 -1.325 C 18.124 -2.205 21.277 -3.511 24.221 -5.211 C 27.164 -6.91 29.872 -8.988 32.276 -11.391 C 34.679 -13.795 36.757 -16.503 38.457 -19.446 C 40.156 -22.39 41.462 -25.544 42.342 -28.827 C 43.222 -32.11 43.667 -35.494 43.667 -38.893 L 43.667 -101.127 L -43.667 -101.127 L -43.667 -38.893 C -43.667 -35.494 -43.222 -32.11 -42.342 -28.827 C -41.462 -25.544 -40.156 -22.39 -38.457 -19.446 C -36.757 -16.503 -34.679 -13.795 -32.276 -11.391 C -29.872 -8.988 -27.164 -6.91 -24.221 -5.211 C -21.277 -3.511 -18.124 -2.205 -14.841 -1.325 C -11.558 -.446 -8.173 0 0 0 " fill="#ee7349"/>
<path transform="matrix(2.7777777,0,0,-2.7777777,448.51417,373.09999)" stroke-width="1.729" stroke-linecap="butt" stroke-miterlimit="10" stroke-linejoin="miter" fill="none" stroke="#ee7349" d="M 0 0 L 0 0 C 8.173 0 11.558 -.446 14.841 -1.325 C 18.124 -2.205 21.277 -3.511 24.221 -5.211 C 27.164 -6.91 29.872 -8.988 32.276 -11.391 C 34.679 -13.795 36.757 -16.503 38.457 -19.446 C 40.156 -22.39 41.462 -25.544 42.342 -28.827 C 43.222 -32.11 43.667 -35.494 43.667 -38.893 L 43.667 -101.127 L -43.667 -101.127 L -43.667 -38.893 C -43.667 -35.494 -43.222 -32.11 -42.342 -28.827 C -41.462 -25.544 -40.156 -22.39 -38.457 -19.446 C -36.757 -16.503 -34.679 -13.795 -32.276 -11.391 C -29.872 -8.988 -27.164 -6.91 -24.221 -5.211 C -21.277 -3.511 -18.124 -2.205 -14.841 -1.325 C -11.558 -.446 -8.173 0 0 0 Z "/>
<path transform="matrix(2.7777777,0,0,-2.7777777,448.51496,413.72776)" d="M 0 0 L 0 0 C 2.571 0 5.165 -.341 7.681 -1.016 C 10.197 -1.69 12.613 -2.691 14.869 -3.993 C 17.124 -5.295 19.2 -6.888 21.041 -8.729 C 22.883 -10.571 24.475 -12.646 25.778 -14.902 C 27.08 -17.158 28.081 -19.574 28.755 -22.09 C 29.429 -24.606 29.771 -27.199 29.771 -29.804 L 29.771 -88.207 L -29.771 -88.207 L -29.771 -29.804 C -29.771 -27.199 -29.429 -24.606 -28.755 -22.09 C -28.081 -19.574 -27.08 -17.158 -25.778 -14.902 C -24.475 -12.646 -22.883 -10.571 -21.041 -8.729 C -19.2 -6.888 -17.124 -5.295 -14.869 -3.993 C -12.613 -2.691 -10.197 -1.69 -7.681 -1.016 C -5.165 -.341 -2.571 0 0 0 " fill="#ffffff"/>
<path transform="matrix(2.7777777,0,0,-2.7777777,448.51496,413.72776)" stroke-width="1.325" stroke-linecap="butt" stroke-miterlimit="10" stroke-linejoin="miter" fill="none" stroke="#ffffff" d="M 0 0 L 0 0 C 2.571 0 5.165 -.341 7.681 -1.016 C 10.197 -1.69 12.613 -2.691 14.869 -3.993 C 17.124 -5.295 19.2 -6.888 21.041 -8.729 C 22.883 -10.571 24.475 -12.646 25.778 -14.902 C 27.08 -17.158 28.081 -19.574 28.755 -22.09 C 29.429 -24.606 29.771 -27.199 29.771 -29.804 L 29.771 -88.207 L -29.771 -88.207 L -29.771 -29.804 C -29.771 -27.199 -29.429 -24.606 -28.755 -22.09 C -28.081 -19.574 -27.08 -17.158 -25.778 -14.902 C -24.475 -12.646 -22.883 -10.571 -21.041 -8.729 C -19.2 -6.888 -17.124 -5.295 -14.869 -3.993 C -12.613 -2.691 -10.197 -1.69 -7.681 -1.016 C -5.165 -.341 -2.571 0 0 0 Z "/>
<path transform="matrix(2.7777777,0,0,-2.7777777,888.1111,495.78385)" d="M 0 0 L 0 0 C 0 -11.25 -.571 -15.586 -1.698 -19.792 C -2.825 -23.997 -4.498 -28.037 -6.675 -31.808 C -8.852 -35.579 -11.514 -39.048 -14.593 -42.127 C -17.672 -45.205 -21.141 -47.867 -24.911 -50.044 C -28.682 -52.221 -32.722 -53.895 -36.928 -55.022 C -41.134 -56.149 -45.469 -56.719 -49.823 -56.719 L -99.646 -56.719 L -99.646 56.719 L -49.823 56.719 C -45.469 56.719 -41.134 56.149 -36.928 55.022 C -32.722 53.895 -28.682 52.221 -24.911 50.044 C -21.141 47.867 -17.672 45.205 -14.593 42.127 C -11.514 39.048 -8.852 35.579 -6.675 31.808 C -4.498 28.037 -2.825 23.997 -1.698 19.792 C -.571 15.586 0 11.25 0 0 " fill="#ee7349"/>
<path transform="matrix(2.7777777,0,0,-2.7777777,888.1111,495.78385)" stroke-width="2.214" stroke-linecap="butt" stroke-miterlimit="10" stroke-linejoin="miter" fill="none" stroke="#ee7349" d="M 0 0 L 0 0 C 0 -11.25 -.571 -15.586 -1.698 -19.792 C -2.825 -23.997 -4.498 -28.037 -6.675 -31.808 C -8.852 -35.579 -11.514 -39.048 -14.593 -42.127 C -17.672 -45.205 -21.141 -47.867 -24.911 -50.044 C -28.682 -52.221 -32.722 -53.895 -36.928 -55.022 C -41.134 -56.149 -45.469 -56.719 -49.823 -56.719 L -99.646 -56.719 L -99.646 56.719 L -49.823 56.719 C -45.469 56.719 -41.134 56.149 -36.928 55.022 C -32.722 53.895 -28.682 52.221 -24.911 50.044 C -21.141 47.867 -17.672 45.205 -14.593 42.127 C -11.514 39.048 -8.852 35.579 -6.675 31.808 C -4.498 28.037 -2.825 23.997 -1.698 19.792 C -.571 15.586 0 11.25 0 0 Z "/>
<path transform="matrix(2.7777777,0,0,-2.7777777,846.06198,496.43724)" d="M 0 0 L 0 0 C 0 -9.465 -.439 -12.796 -1.304 -16.028 C -2.17 -19.259 -3.456 -22.363 -5.129 -25.26 C -6.801 -28.157 -8.847 -30.823 -11.212 -33.188 C -13.578 -35.554 -16.243 -37.599 -19.14 -39.272 C -22.037 -40.944 -25.141 -42.23 -28.373 -43.096 C -31.604 -43.962 -34.935 -44.4 -38.28 -44.4 L -85.522 -44.4 L -85.522 44.4 L -38.28 44.4 C -34.935 44.4 -31.604 43.962 -28.373 43.096 C -25.141 42.23 -22.037 40.944 -19.14 39.272 C -16.243 37.599 -13.578 35.554 -11.212 33.188 C -8.847 30.823 -6.801 28.157 -5.129 25.26 C -3.456 22.363 -2.17 19.259 -1.304 16.028 C -.439 12.796 0 9.465 0 0 " fill="#ffffff"/>
<path transform="matrix(2.7777777,0,0,-2.7777777,846.06198,496.43724)" stroke-width="1.701" stroke-linecap="butt" stroke-miterlimit="10" stroke-linejoin="miter" fill="none" stroke="#ffffff" d="M 0 0 L 0 0 C 0 -9.465 -.439 -12.796 -1.304 -16.028 C -2.17 -19.259 -3.456 -22.363 -5.129 -25.26 C -6.801 -28.157 -8.847 -30.823 -11.212 -33.188 C -13.578 -35.554 -16.243 -37.599 -19.14 -39.272 C -22.037 -40.944 -25.141 -42.23 -28.373 -43.096 C -31.604 -43.962 -34.935 -44.4 -38.28 -44.4 L -85.522 -44.4 L -85.522 44.4 L -38.28 44.4 C -34.935 44.4 -31.604 43.962 -28.373 43.096 C -25.141 42.23 -22.037 40.944 -19.14 39.272 C -16.243 37.599 -13.578 35.554 -11.212 33.188 C -8.847 30.823 -6.801 28.157 -5.129 25.26 C -3.456 22.363 -2.17 19.259 -1.304 16.028 C -.439 12.796 0 9.465 0 0 Z "/>
</g>
<path transform="matrix(2.7777777,0,0,-2.7777777,0,1041.6666)" d="M 188.161 242.28 L 225.47699 242.28 L 225.47699 253.612 L 188.161 253.612 Z " fill="#ee7349"/>
<path transform="matrix(2.7777777,0,0,-2.7777777,522.66946,337.18803)" stroke-width="1.464" stroke-linecap="butt" stroke-miterlimit="10" stroke-linejoin="miter" fill="none" stroke="#ee7349" d="M 0 0 L 0 -11.332 L 37.316 -11.332 L 37.316 0 Z "/>
<path transform="matrix(2.7777777,0,0,-2.7777777,0,1041.6666)" d="M 231.984 225.988 L 214.14499 225.988 L 214.14499 139.42401 L 231.984 139.42401 Z " fill="#ee7349"/>
<path transform="matrix(2.7777777,0,0,-2.7777777,644.3994,413.9214)" stroke-width="1.464" stroke-linecap="butt" stroke-miterlimit="10" stroke-linejoin="miter" fill="none" stroke="#ee7349" d="M 0 0 L -17.839 0 L -17.839 -86.564 L 0 -86.564 Z "/>
<path transform="matrix(2.7777777,0,0,-2.7777777,936.8941,655.51028)" d="M 0 0 L 0 25.382 L -29.287 0 Z " fill="#eb9f6e"/>
<path transform="matrix(2.7777777,0,0,-2.7777777,936.8941,655.51028)" stroke-width=".651" stroke-linecap="butt" stroke-miterlimit="10" stroke-linejoin="miter" fill="none" stroke="#eb9f6e" d="M 0 0 L 0 25.382 L -29.287 0 L 0 0 Z "/>
<path transform="matrix(2.7777777,0,0,-2.7777777,0,1041.6666)" d="M 355.387 225.63 L 336.44999 225.63 L 336.44999 139.78202 L 355.387 139.78202 Z " fill="#ee7349"/>
<path transform="matrix(2.7777777,0,0,-2.7777777,987.1852,414.91609)" stroke-width="2.18" stroke-linecap="butt" stroke-miterlimit="10" stroke-linejoin="miter" fill="none" stroke="#ee7349" d="M 0 0 L -18.937 0 L -18.937 -85.848 L 0 -85.848 Z "/>
<clipPath id="cp3">
<path transform="matrix(2.7777777,0,0,-2.7777777,0,1041.6666)" d="M 0 0 L 375 0 L 375 375 L 0 375 Z "/>
</clipPath>
<g clip-path="url(#cp3)">
<path transform="matrix(2.7777777,0,0,-2.7777777,495.59584,544.56497)" d="M 0 0 C 0 -9.361 -7.589 -16.949 -16.949 -16.949 C -26.31 -16.949 -33.898 -9.361 -33.898 0 C -33.898 9.361 -26.31 16.949 -16.949 16.949 C -7.589 16.949 0 9.361 0 0 " fill="#ee7349"/>
<path transform="matrix(2.7777777,0,0,-2.7777777,495.59584,544.56497)" stroke-width=".753" stroke-linecap="butt" stroke-miterlimit="10" stroke-linejoin="miter" fill="none" stroke="#ee7349" d="M 0 0 C 0 -9.361 -7.589 -16.949 -16.949 -16.949 C -26.31 -16.949 -33.898 -9.361 -33.898 0 C -33.898 9.361 -26.31 16.949 -16.949 16.949 C -7.589 16.949 0 9.361 0 0 "/>
<path transform="matrix(2.7777777,0,0,-2.7777777,1007.9656,346.0775)" d="M 0 0 C 0 -9.361 -7.589 -16.949 -16.949 -16.949 C -26.31 -16.949 -33.898 -9.361 -33.898 0 C -33.898 9.361 -26.31 16.949 -16.949 16.949 C -7.589 16.949 0 9.361 0 0 " fill="#eb9f6e"/>
<path transform="matrix(2.7777777,0,0,-2.7777777,1007.9656,346.0775)" stroke-width=".753" stroke-linecap="butt" stroke-miterlimit="10" stroke-linejoin="miter" fill="none" stroke="#eb9f6e" d="M 0 0 C 0 -9.361 -7.589 -16.949 -16.949 -16.949 C -26.31 -16.949 -33.898 -9.361 -33.898 0 C -33.898 9.361 -26.31 16.949 -16.949 16.949 C -7.589 16.949 0 9.361 0 0 "/>
</g>
<path transform="matrix(2.7777777,0,0,-2.7777777,915.3519,655.42306)" d="M 0 0 L 0 15.315 L -32.055 0 Z " fill="#eb9f6e"/>
<path transform="matrix(2.7777777,0,0,-2.7777777,915.3519,655.42306)" stroke-width=".712" stroke-linecap="butt" stroke-miterlimit="10" stroke-linejoin="miter" fill="none" stroke="#eb9f6e" d="M 0 0 L 0 15.315 L -32.055 0 L 0 0 Z "/>
<clipPath id="cp4">
<path transform="matrix(2.7777777,0,0,-2.7777777,0,1041.6666)" d="M 0 0 L 375 0 L 375 375 L 0 375 Z "/>
</clipPath>
<g clip-path="url(#cp4)">
<path transform="matrix(2.7777777,0,0,-2.7777777,504.81608,505.29695)" d="M 0 0 L 139.665 53.614 C 139.771 53.655 139.877 53.693 139.985 53.728 C 140.092 53.763 140.2 53.796 140.309 53.826 C 140.418 53.856 140.528 53.883 140.638 53.908 C 140.748 53.932 140.859 53.954 140.97 53.973 C 141.082 53.992 141.194 54.009 141.306 54.022 C 141.418 54.036 141.531 54.047 141.643 54.055 C 141.756 54.063 141.869 54.069 141.982 54.071 C 142.095 54.074 142.208 54.074 142.32 54.071 C 142.433 54.068 142.546 54.062 142.659 54.054 C 142.772 54.045 142.884 54.034 142.996 54.02 C 143.109 54.006 143.22 53.989 143.331 53.969 C 143.443 53.95 143.553 53.928 143.664 53.903 C 143.774 53.878 143.884 53.85 143.993 53.82 C 144.101 53.79 144.209 53.757 144.317 53.721 C 144.424 53.686 144.53 53.647 144.635 53.606 C 144.741 53.566 144.845 53.522 144.948 53.476 C 145.051 53.43 145.154 53.382 145.255 53.331 C 145.356 53.28 145.455 53.226 145.553 53.171 C 145.651 53.115 145.748 53.056 145.844 52.996 C 145.939 52.935 146.033 52.872 146.125 52.807 C 146.217 52.742 146.308 52.674 146.397 52.605 C 146.486 52.535 146.573 52.463 146.659 52.389 C 146.744 52.315 146.827 52.239 146.909 52.161 C 146.991 52.083 147.071 52.003 147.149 51.921 C 147.227 51.839 147.302 51.756 147.376 51.67 C 147.45 51.584 147.521 51.497 147.59 51.407 C 147.66 51.318 147.727 51.227 147.792 51.135 C 147.857 51.042 147.919 50.948 147.98 50.853 C 148.04 50.757 148.098 50.66 148.153 50.562 C 148.209 50.463 148.262 50.364 148.313 50.263 C 148.364 50.162 148.412 50.06 148.457 49.956 C 148.503 49.853 148.546 49.748 148.586 49.643 C 148.627 49.537 148.665 49.431 148.7 49.324 C 148.735 49.216 148.768 49.108 148.798 48.999 C 148.828 48.89 148.855 48.78 148.879 48.67 C 148.904 48.56 148.926 48.449 148.945 48.338 C 148.964 48.226 148.981 48.115 148.994 48.002 C 149.008 47.89 149.019 47.778 149.027 47.665 C 149.035 47.552 149.041 47.439 149.043 47.326 C 149.046 47.214 149.046 47.101 149.043 46.987 C 149.04 46.875 149.034 46.762 149.025 46.649 C 149.017 46.536 149.006 46.424 148.992 46.312 C 148.978 46.2 148.961 46.088 148.941 45.977 C 148.922 45.865 148.9 45.755 148.874 45.644 C 148.85 45.534 148.822 45.425 148.792 45.316 C 148.761 45.207 148.728 45.099 148.693 44.992 C 148.657 44.884 148.619 44.778 148.578 44.673 C 148.537 44.567 148.494 44.463 148.448 44.36 C 148.402 44.257 148.354 44.155 148.303 44.054 C 148.252 43.953 148.198 43.853 148.142 43.755 C 148.086 43.657 148.028 43.56 147.968 43.465 C 147.907 43.369 147.844 43.275 147.779 43.183 C 147.713 43.091 147.646 43 147.576 42.911 C 147.507 42.822 147.435 42.735 147.361 42.65 C 147.287 42.564 147.211 42.481 147.133 42.399 C 147.055 42.317 146.975 42.237 146.893 42.16 C 146.811 42.082 146.727 42.006 146.642 41.932 C 146.556 41.859 146.468 41.787 146.379 41.718 C 146.29 41.649 146.199 41.581 146.107 41.516 C 146.014 41.451 145.92 41.389 145.824 41.328 C 145.729 41.268 145.632 41.21 145.534 41.155 C 145.435 41.099 145.336 41.046 145.235 40.996 C 145.134 40.945 145.031 40.897 144.928 40.851 C 144.824 40.805 144.72 40.762 144.614 40.722 L 4.949 -12.892 C 4.844 -12.933 4.737 -12.971 4.63 -13.006 C 4.523 -13.041 4.414 -13.074 4.305 -13.104 C 4.196 -13.134 4.087 -13.161 3.977 -13.186 C 3.866 -13.21 3.755 -13.232 3.644 -13.251 C 3.533 -13.271 3.421 -13.287 3.309 -13.301 C 3.197 -13.314 3.084 -13.325 2.971 -13.333 C 2.859 -13.341 2.746 -13.347 2.633 -13.349 C 2.52 -13.352 2.407 -13.352 2.294 -13.349 C 2.181 -13.346 2.068 -13.34 1.955 -13.332 C 1.843 -13.323 1.73 -13.312 1.618 -13.298 C 1.506 -13.284 1.394 -13.267 1.283 -13.248 C 1.172 -13.228 1.061 -13.206 .951 -13.181 C .841 -13.156 .731 -13.128 .622 -13.098 C .513 -13.068 .405 -13.035 .298 -12.999 C .191 -12.964 .084 -12.925 -.021 -12.884 C -.126 -12.844 -.231 -12.8 -.334 -12.754 C -.437 -12.708 -.539 -12.66 -.64 -12.609 C -.741 -12.558 -.84 -12.504 -.939 -12.449 C -1.037 -12.393 -1.134 -12.334 -1.229 -12.274 C -1.324 -12.213 -1.418 -12.15 -1.51 -12.085 C -1.603 -12.02 -1.693 -11.952 -1.782 -11.883 C -1.871 -11.813 -1.959 -11.741 -2.044 -11.667 C -2.129 -11.593 -2.213 -11.517 -2.295 -11.439 C -2.376 -11.361 -2.456 -11.281 -2.534 -11.199 C -2.612 -11.117 -2.688 -11.034 -2.761 -10.948 C -2.835 -10.862 -2.906 -10.775 -2.976 -10.686 C -3.045 -10.596 -3.112 -10.505 -3.177 -10.413 C -3.242 -10.32 -3.305 -10.226 -3.365 -10.131 C -3.425 -10.035 -3.483 -9.938 -3.539 -9.84 C -3.594 -9.741 -3.647 -9.642 -3.698 -9.541 C -3.749 -9.44 -3.797 -9.338 -3.842 -9.234 C -3.888 -9.131 -3.931 -9.026 -3.972 -8.921 C -4.012 -8.815 -4.05 -8.709 -4.085 -8.602 C -4.121 -8.494 -4.153 -8.386 -4.183 -8.277 C -4.213 -8.168 -4.24 -8.058 -4.265 -7.948 C -4.29 -7.838 -4.311 -7.727 -4.331 -7.616 C -4.35 -7.504 -4.366 -7.393 -4.38 -7.28 C -4.393 -7.168 -4.404 -7.056 -4.412 -6.943 C -4.421 -6.83 -4.426 -6.717 -4.429 -6.605 C -4.431 -6.492 -4.431 -6.379 -4.428 -6.266 C -4.425 -6.153 -4.419 -6.04 -4.411 -5.927 C -4.402 -5.814 -4.391 -5.702 -4.377 -5.59 C -4.363 -5.478 -4.346 -5.366 -4.327 -5.255 C -4.307 -5.143 -4.285 -5.033 -4.26 -4.922 C -4.235 -4.812 -4.208 -4.703 -4.177 -4.594 C -4.147 -4.485 -4.114 -4.377 -4.078 -4.27 C -4.043 -4.162 -4.004 -4.056 -3.964 -3.951 C -3.923 -3.845 -3.879 -3.741 -3.833 -3.638 C -3.787 -3.535 -3.739 -3.433 -3.688 -3.332 C -3.637 -3.231 -3.584 -3.131 -3.528 -3.033 C -3.472 -2.935 -3.414 -2.838 -3.353 -2.743 C -3.292 -2.647 -3.23 -2.553 -3.164 -2.461 C -3.099 -2.369 -3.032 -2.278 -2.962 -2.189 C -2.892 -2.1 -2.82 -2.013 -2.747 -1.928 C -2.673 -1.842 -2.597 -1.759 -2.519 -1.677 C -2.44 -1.595 -2.36 -1.515 -2.279 -1.438 C -2.197 -1.36 -2.113 -1.284 -2.027 -1.21 C -1.941 -1.137 -1.854 -1.065 -1.765 -.996 C -1.675 -.927 -1.585 -.859 -1.492 -.794 C -1.4 -.73 -1.306 -.667 -1.21 -.607 C -1.114 -.546 -1.017 -.488 -.919 -.433 C -.821 -.377 -.721 -.324 -.62 -.274 C -.519 -.223 -.417 -.175 -.313 -.129 C -.21 -.084 -.105 -.04 0 0 " fill="#eb9f6e"/>
<path transform="matrix(2.7777777,0,0,-2.7777777,504.81608,505.29695)" stroke-width="1.418" stroke-linecap="butt" stroke-miterlimit="10" stroke-linejoin="miter" fill="none" stroke="#eb9f6e" d="M 0 0 L 139.665 53.614 C 139.771 53.655 139.877 53.693 139.985 53.728 C 140.092 53.763 140.2 53.796 140.309 53.826 C 140.418 53.856 140.528 53.883 140.638 53.908 C 140.748 53.932 140.859 53.954 140.97 53.973 C 141.082 53.992 141.194 54.009 141.306 54.022 C 141.418 54.036 141.531 54.047 141.643 54.055 C 141.756 54.063 141.869 54.069 141.982 54.071 C 142.095 54.074 142.208 54.074 142.32 54.071 C 142.433 54.068 142.546 54.062 142.659 54.054 C 142.772 54.045 142.884 54.034 142.996 54.02 C 143.109 54.006 143.22 53.989 143.331 53.969 C 143.443 53.95 143.553 53.928 143.664 53.903 C 143.774 53.878 143.884 53.85 143.993 53.82 C 144.101 53.79 144.209 53.757 144.317 53.721 C 144.424 53.686 144.53 53.647 144.635 53.606 C 144.741 53.566 144.845 53.522 144.948 53.476 C 145.051 53.43 145.154 53.382 145.255 53.331 C 145.356 53.28 145.455 53.226 145.553 53.171 C 145.651 53.115 145.748 53.056 145.844 52.996 C 145.939 52.935 146.033 52.872 146.125 52.807 C 146.217 52.742 146.308 52.674 146.397 52.605 C 146.486 52.535 146.573 52.463 146.659 52.389 C 146.744 52.315 146.827 52.239 146.909 52.161 C 146.991 52.083 147.071 52.003 147.149 51.921 C 147.227 51.839 147.302 51.756 147.376 51.67 C 147.45 51.584 147.521 51.497 147.59 51.407 C 147.66 51.318 147.727 51.227 147.792 51.135 C 147.857 51.042 147.919 50.948 147.98 50.853 C 148.04 50.757 148.098 50.66 148.153 50.562 C 148.209 50.463 148.262 50.364 148.313 50.263 C 148.364 50.162 148.412 50.06 148.457 49.956 C 148.503 49.853 148.546 49.748 148.586 49.643 C 148.627 49.537 148.665 49.431 148.7 49.324 C 148.735 49.216 148.768 49.108 148.798 48.999 C 148.828 48.89 148.855 48.78 148.879 48.67 C 148.904 48.56 148.926 48.449 148.945 48.338 C 148.964 48.226 148.981 48.115 148.994 48.002 C 149.008 47.89 149.019 47.778 149.027 47.665 C 149.035 47.552 149.041 47.439 149.043 47.326 C 149.046 47.214 149.046 47.101 149.043 46.987 C 149.04 46.875 149.034 46.762 149.025 46.649 C 149.017 46.536 149.006 46.424 148.992 46.312 C 148.978 46.2 148.961 46.088 148.941 45.977 C 148.922 45.865 148.9 45.755 148.874 45.644 C 148.85 45.534 148.822 45.425 148.792 45.316 C 148.761 45.207 148.728 45.099 148.693 44.992 C 148.657 44.884 148.619 44.778 148.578 44.673 C 148.537 44.567 148.494 44.463 148.448 44.36 C 148.402 44.257 148.354 44.155 148.303 44.054 C 148.252 43.953 148.198 43.853 148.142 43.755 C 148.086 43.657 148.028 43.56 147.968 43.465 C 147.907 43.369 147.844 43.275 147.779 43.183 C 147.713 43.091 147.646 43 147.576 42.911 C 147.507 42.822 147.435 42.735 147.361 42.65 C 147.287 42.564 147.211 42.481 147.133 42.399 C 147.055 42.317 146.975 42.237 146.893 42.16 C 146.811 42.082 146.727 42.006 146.642 41.932 C 146.556 41.859 146.468 41.787 146.379 41.718 C 146.29 41.649 146.199 41.581 146.107 41.516 C 146.014 41.451 145.92 41.389 145.824 41.328 C 145.729 41.268 145.632 41.21 145.534 41.155 C 145.435 41.099 145.336 41.046 145.235 40.996 C 145.134 40.945 145.031 40.897 144.928 40.851 C 144.824 40.805 144.72 40.762 144.614 40.722 L 4.949 -12.892 C 4.844 -12.933 4.737 -12.971 4.63 -13.006 C 4.523 -13.041 4.414 -13.074 4.305 -13.104 C 4.196 -13.134 4.087 -13.161 3.977 -13.186 C 3.866 -13.21 3.755 -13.232 3.644 -13.251 C 3.533 -13.271 3.421 -13.287 3.309 -13.301 C 3.197 -13.314 3.084 -13.325 2.971 -13.333 C 2.859 -13.341 2.746 -13.347 2.633 -13.349 C 2.52 -13.352 2.407 -13.352 2.294 -13.349 C 2.181 -13.346 2.068 -13.34 1.955 -13.332 C 1.843 -13.323 1.73 -13.312 1.618 -13.298 C 1.506 -13.284 1.394 -13.267 1.283 -13.248 C 1.172 -13.228 1.061 -13.206 .951 -13.181 C .841 -13.156 .731 -13.128 .622 -13.098 C .513 -13.068 .405 -13.035 .298 -12.999 C .191 -12.964 .084 -12.925 -.021 -12.884 C -.126 -12.844 -.231 -12.8 -.334 -12.754 C -.437 -12.708 -.539 -12.66 -.64 -12.609 C -.741 -12.558 -.84 -12.504 -.939 -12.449 C -1.037 -12.393 -1.134 -12.334 -1.229 -12.274 C -1.324 -12.213 -1.418 -12.15 -1.51 -12.085 C -1.603 -12.02 -1.693 -11.952 -1.782 -11.883 C -1.871 -11.813 -1.959 -11.741 -2.044 -11.667 C -2.129 -11.593 -2.213 -11.517 -2.295 -11.439 C -2.376 -11.361 -2.456 -11.281 -2.534 -11.199 C -2.612 -11.117 -2.688 -11.034 -2.761 -10.948 C -2.835 -10.862 -2.906 -10.775 -2.976 -10.686 C -3.045 -10.596 -3.112 -10.505 -3.177 -10.413 C -3.242 -10.32 -3.305 -10.226 -3.365 -10.131 C -3.425 -10.035 -3.483 -9.938 -3.539 -9.84 C -3.594 -9.741 -3.647 -9.642 -3.698 -9.541 C -3.749 -9.44 -3.797 -9.338 -3.842 -9.234 C -3.888 -9.131 -3.931 -9.026 -3.972 -8.921 C -4.012 -8.815 -4.05 -8.709 -4.085 -8.602 C -4.121 -8.494 -4.153 -8.386 -4.183 -8.277 C -4.213 -8.168 -4.24 -8.058 -4.265 -7.948 C -4.29 -7.838 -4.311 -7.727 -4.331 -7.616 C -4.35 -7.504 -4.366 -7.393 -4.38 -7.28 C -4.393 -7.168 -4.404 -7.056 -4.412 -6.943 C -4.421 -6.83 -4.426 -6.717 -4.429 -6.605 C -4.431 -6.492 -4.431 -6.379 -4.428 -6.266 C -4.425 -6.153 -4.419 -6.04 -4.411 -5.927 C -4.402 -5.814 -4.391 -5.702 -4.377 -5.59 C -4.363 -5.478 -4.346 -5.366 -4.327 -5.255 C -4.307 -5.143 -4.285 -5.033 -4.26 -4.922 C -4.235 -4.812 -4.208 -4.703 -4.177 -4.594 C -4.147 -4.485 -4.114 -4.377 -4.078 -4.27 C -4.043 -4.162 -4.004 -4.056 -3.964 -3.951 C -3.923 -3.845 -3.879 -3.741 -3.833 -3.638 C -3.787 -3.535 -3.739 -3.433 -3.688 -3.332 C -3.637 -3.231 -3.584 -3.131 -3.528 -3.033 C -3.472 -2.935 -3.414 -2.838 -3.353 -2.743 C -3.292 -2.647 -3.23 -2.553 -3.164 -2.461 C -3.099 -2.369 -3.032 -2.278 -2.962 -2.189 C -2.892 -2.1 -2.82 -2.013 -2.747 -1.928 C -2.673 -1.842 -2.597 -1.759 -2.519 -1.677 C -2.44 -1.595 -2.36 -1.515 -2.279 -1.438 C -2.197 -1.36 -2.113 -1.284 -2.027 -1.21 C -1.941 -1.137 -1.854 -1.065 -1.765 -.996 C -1.675 -.927 -1.585 -.859 -1.492 -.794 C -1.4 -.73 -1.306 -.667 -1.21 -.607 C -1.114 -.546 -1.017 -.488 -.919 -.433 C -.821 -.377 -.721 -.324 -.62 -.274 C -.519 -.223 -.417 -.175 -.313 -.129 C -.21 -.084 -.105 -.04 0 0 Z "/>
</g>
</g>
</g>
</svg>